/* XPM */
static char *_b2f581a541c4ba4a0a8d687b1965e86so5AyMbMCbLMWKdF[] = {
/* columns rows colors chars-per-pixel */
"50 50 36 1 ",
"  c #FCA6B7",
". c #FBA7B9",
"X c #FCA7B8",
"o c #FBA8B9",
"O c #FCAABB",
"+ c #FCABBB",
"@ c #FBABBC",
"# c #FCABBD",
"$ c #FBAEBF",
"% c #FCAFBF",
"& c #FCAFC0",
"* c #FCAFC1",
"= c #FCB1C1",
"- c #FDB1C3",
"; c #FCB3C4",
": c #FCB4C4",
"> c #FDB4C4",
", c #FCB5C4",
"< c #FCB8C7",
"1 c #FDB7C8",
"2 c #FCB8C9",
"3 c #FCBACA",
"4 c #FCBBCB",
"5 c #FCBCCB",
"6 c #FCBBCC",
"7 c #FCBECD",
"8 c #FDBECE",
"9 c #FDBFD0",
"0 c #FDC0CF",
"q c #FDC0D0",
"w c #FDC4D2",
"e c #FEC4D4",
"r c #FDC7D5",
"t c #FDC7D6",
"y c #FEC7D6",
"u c #FEC9D8",
/* pixels */
"8:8545y=41:::6=14;1=;4461:1*%*%%:4:;4==:61=161*6==",
"y4;88y:=:=4166**;*6*;6=;;;%:119**6==1;;116:11=;;6;",
"8:++===84;=:1==41=:1*461;#61=::9*;=18641#X#*;=;116",
"=8w8==8488;*=*:844=41===**4=yy:6=141;6*X=16#X6161*",
"yy8qy=,416=16=:816:;1111#1164=18*9*46:#8968q*#1==*",
"0=8,48.,;;:141=;6166;:44#68;4;6*4;*=;*1q=:=:8#%#=8",
",06y11&==66=:=+%*=161=84%%y:=;=6=611;%8::461;:=61;",
",7,y81==84;1:*484=#;4=:::+;e888#=6164%111*98:::66;",
"484q=8#:8;;6*=9661;=46=66;X*=;=:66:46===1:6;6=#**4",
",7978;=6=1:;*6:8961=:14;6;1;*=14=11:1=*#;8=49+:6*;",
"q,0q6+=4:866=666:46*41;:;*8881841==1::64#=84#;6:1*",
"9w=$#;6*414::%4::41%8:;16*;64;8:14:6;::66X#%#4:161",
"4488==6*:6:18:*=:;*1=4418:%::=8:8:64:66;;=664=:144",
"44447=;=*=:=6:=14=464;484*4844*4=#:=1666=1444:6:1=",
"=888;;44=168=:664;=84:;1=*1941==*88=#:==+161===*;;",
"5,4,&;8==118::88*;*;=66=8=18:4;#q616:%*=4*4;*888*8",
";#=*=*4==148::8661=64=461:;848@;4=886==6116#64=:6=",
"=661=4%46=118;;66==88;;1462;=*;144186:*4=::=8;91:;",
"114;46:::##%=9;**16;4%41;;4,=44*41418=**=66*8;y89=",
"::88;68.*118:%=441;41:45;1;2814;*4*4=*:446:#;6=8;1",
"=::4:y%*8:::86%48=;4=;:844;141:1::4==446::1=#;818e",
"6*418;X9=6yq:w%*:48+=;==42;&1;:1:466;6:1:646:%%16*",
"44*;;*=8=816:q*141*;9611$;641=4=41;66;6=*:1::4:+*=",
"46488==y=6118*=14:%8:8611%1;66684;;=9=*=:%*4:48:18",
"4:*66=+99=6:==168:;8;4844#*1=:86=664*;86yq**448:%:",
"=*=644%%q964:*464:=016144%416=:==461==:1*68X=14=46",
"8;181:4*#;;#=6===e4:6144%=481146441=#6=:4*9==64184",
"=%#=6=1;=%;6::1:1894=14=**;4481q41:%81619=9==;*%6;",
"::;=#=8:1=4*4=644:4414=:6*=46::81:=#8;8y8:9X*816*1",
"y868=#*4=1641=*1*44=144==***=:81488#18=::q%#y1:14=",
";=6=4;#=;141*=1*;=44694:=66:886:4=64%1846=+;6169::",
"=66y=1*16====916:4%46::468:4:4=88#*=8=**#::=8:=158",
"=;;y;6%;148*648;16:=;===81::4141=66;;414;81%;:614*",
"=61*66+1;49==;88=6:*984==86;141=16;8;*884=;;*=== 4",
"6;669*=1=4;**:1419#:444:*4;4:;:=4:86==864::6:*11:4",
"*;*;==;44+=;;%%41#*=;48::8;4:16::144=*681=66::681=",
"*;:4::141=4661=:*#1%=146=::18146114==1=:;;6==4=1=:",
"4814;881;4184*:4=611==*;=4848=:*::;#=8:=48;1;4864:",
"188:4%*%X66;1:6:;:16;;=::6:164%:64=8*;6448=4:**=08",
":848=%481#11;=4:*;;9*146:61:64*81::66;668;44#:99:8",
";=44#86;9:%*:::41*1;=#=11=4;8=::89118=:;==9=:8;98:",
"6*=#=6:9;8::=61:8==*==##;44448=666=64%8;;8=#6;q884",
"166;=;8e;4=6*4918=#8989;+484=86=:164#:1=48=*:4u54:",
"1=8:=:196468X::68===;*;y==4488:6###%1:;11::;84y48=",
"9;**X6=;:*q:#=;=16%6:4*88#=84*4==61*111:1:;+04:4*8",
";;=1*#98698#=68;9;4==:416=88:15:616:=11*4184=y44qq",
"=1616X#14=X*6=166=8:yy:8=%1::44==18:*=*=688q%%481*",
"61;61:*XXX16:46;4*8;1*;8+66q;*11:46=*:6=:48=*%  *1",
"=8:6:1:=6:6:::;;8*%8414#:1::y*=8::;*1641;;=%q84*:y",
";161981:1116:1=146*#%#*;1::144%4;61=1;1;46=q4441=4"
};
