/* XPM */
static char *_dde2629f2f148a3f89d667804629dadMwSjqxmHS3rLfBak[] = {
/* columns rows colors chars-per-pixel */
"50 50 151 2 ",
"   c None",
".  c #36393D",
"X  c #393B3F",
"o  c #444548",
"O  c #655F56",
"+  c #676157",
"@  c #69645A",
"#  c #616162",
"$  c #746E65",
"%  c #787165",
"&  c #76726A",
"*  c #7C766C",
"=  c #827B6F",
"-  c #878177",
";  c #888279",
":  c #8F897F",
">  c #908A7F",
",  c #EAC566",
"<  c #EFCB6A",
"1  c #E5C274",
"2  c #E9C774",
"3  c #EDC972",
"4  c #F0CD74",
"5  c #F9D577",
"6  c #FCD876",
"7  c #FBD87D",
"8  c #878684",
"9  c #908F8C",
"0  c #989693",
"q  c #999895",
"w  c #A2A09D",
"e  c #ABABAC",
"r  c #B0AEAA",
"t  c #B3B1AD",
"y  c #B0AEB0",
"u  c #B5B3B1",
"i  c #B9B7B4",
"p  c #BBB9B5",
"a  c #BDBBBB",
"s  c #E58C80",
"d  c #E6968B",
"f  c #E69D92",
"g  c #C1BFBA",
"h  c #E8B4AB",
"j  c #E8CB8C",
"k  c #F4D283",
"l  c #FEDC84",
"z  c #F5D588",
"x  c #F7D88E",
"c  c #FDDC88",
"v  c #E8CE96",
"b  c #F7D992",
"n  c #F3D79C",
"m  c #FBDE9E",
"M  c #FFE081",
"N  c #FFE88B",
"B  c #C4C2BD",
"V  c #C8C5BE",
"C  c #F2D9A4",
"Z  c #F2DCAB",
"A  c #E9D8B0",
"S  c #FBE1A5",
"D  c #FFEBA9",
"F  c #FFF6A4",
"G  c #D786C0",
"H  c #D984C2",
"J  c #D789C1",
"K  c #DA8BC4",
"L  c #DB92C5",
"P  c #DA9AC6",
"I  c #DF94C8",
"U  c #E18EC8",
"Y  c #E295CA",
"T  c #E698CE",
"R  c #E99CCF",
"E  c #EB9DD4",
"W  c #D7A7C7",
"Q  c #DAA0C7",
"!  c #DBA0C8",
"~  c #DBABCA",
"^  c #D8B1C9",
"/  c #E1B3CF",
"(  c #EDA1D3",
")  c #F1A4D7",
"_  c #F4A6D9",
"`  c #FBA4DD",
"'  c #F6A9DB",
"]  c #FBACDE",
"[  c #EFB2D8",
"{  c #F0BCDA",
"}  c #FEADE1",
"|  c #FFB1E4",
" . c #FBB9E1",
".. c #FFB5EB",
"X. c #FFB9EF",
"o. c #FFBBF2",
"O. c #C9C6C2",
"+. c #CCC9C4",
"@. c #CECCC9",
"#. c #D7C3CC",
"$. c #D1CECB",
"%. c #CFD2CB",
"&. c #D3D2CD",
"*. c #D7D5D1",
"=. c #D9D6D2",
"-. c #DCDAD5",
";. c #DEDDD8",
":. c #EBD6CF",
">. c #E3C3D4",
",. c #E3CCD6",
"<. c #E8CDDA",
"1. c #F3C9DF",
"2. c #EBD7D0",
"3. c #E0DCD6",
"4. c #E8D4DB",
"5. c #E1DED9",
"6. c #EADCDE",
"7. c #EFE1C4",
"8. c #F6E6C3",
"9. c #F9E8C6",
"0. c #FCECCB",
"q. c #FFF3C8",
"w. c #E5E2DD",
"e. c #EAE5DC",
"r. c #F2EBDD",
"t. c #F5CAE1",
"y. c #EBDEE0",
"u. c #EBE6E1",
"i. c #EDEAE4",
"p. c #EEEEE8",
"a. c #F0EDE7",
"s. c #F1EFE8",
"d. c #EFF1E7",
"f. c #EEF0E6",
"g. c #F3F0E9",
"h. c #F4F1EA",
"j. c #F7F4ED",
"k. c #F4F2EB",
"l. c #F8F5EF",
"z. c #F8F4ED",
"x. c #F8F5EE",
"c. c #FAF7F0",
"v. c #FBF8F1",
"b. c #FCF9F2",
"n. c #FFFDF6",
"m. c #FFFEF7",
"M. c #FDFAF4",
"N. c #FFFDF8",
"B. c #FFFFF9",
"V. c white",
"C. c #FFFFFA",
/* pixels */
"                                                                                                    ",
"                                                              i.$.    i.                  z S       ",
"                                                            s.V.y   c.*.              5 l C         ",
"                                                            j.=.e p.p.a           1 5 F j           ",
"                                                  ] } ] ` 1.p.g u s.=.i       c c 3 D 9.            ",
"                                              ] o...) Y H <.i.O.@.i.5.-.A , c N < n 0.              ",
"                                            ] o._ L J / 4.i.i.i.i.i.p.8.M k 3 c m v                 ",
"                                          ] o._ K L 4.p.p.i.i.i.i.i.i.x 7 3 k q.8.                  ",
"                                          | ] I J 4.a.i.i.i.i.i.i.i.i.b 6 2 Z 0.                    ",
"                                        ] X._ G / p.i.i.i.i.i.i.i.i.i.7.S C C r.                    ",
"                                        ] X.( G 4.p.i.i.i.i.i.i.i.a.k.s.e.r.e.m.l.                  ",
"                                        } | T L e.i.i.i.i.i.i.u.a.3.p &.s.i.p.e.r                   ",
"                                        ] | Y P u.i.i.i.i.i.i.i.;.# . X B s.k.w o 9                 ",
"                                        } | Y P u.i.i.i.i.i.i.s.B q 5.B r a.i.t -.M.w.              ",
"                                        ] | T L u.a.i.i.i.i.i.i.e.p.s.s.i.i.i.a.s.a.m.u.            ",
"                                        ] | R K y.i.i.i.i.i.i.i.p.p.u.i.i.i.p.u.i.i.i.j.            ",
"                                        ] | ( G 4.p.i.i.i.i.h d f 2.p.i.i.i.i.i.i.i.i.l.i.          ",
"                                        ] ..' K >.p.i.e.i.i.h s d :.i.u.i.i.i.p.i.i.i.i.m.          ",
"                                        ] ..] K ~ a.i.i.i.i.p.i.i.i.i.i.i.i.i.u.w.i.i.h.g 0         ",
"            ] | ....] ]                 ] ..| T P i.i.i.i.i.i.i.i.i.i.i.i.i.k.@.8 i.i.a.-.+.        ",
"        ] o...] } ] } o.]               ] X.| ) J 6.i.i.i.i.i.i.i.i.i.i.i.i.i.e.*.i.i.i.m.h.        ",
"        X.] ] ] ] ] } } o.}               ..} ' K ,.f.i.i.w.w.a.i.i.i.i.i.i.i.i.h.i.i.i.m.          ",
"      ] ..] } } } ] ] ] ] ..              X.} ] K >.i.i.i.p.3.3.i.i.u.i.i.i.i.i.e.i.i.l.i.          ",
"      ..] } ' ( _ ] } } } ..]           } ..] ] U >.p.i.i.i.i.-.*.u.p.i.i.i.i.i.a.i.M.a.            ",
"    ] ..} _ L K L L ) { >.,.6.i.i.      } ] } ) G 6.f.i.i.e.i.a.-.$.-.w.i.z.m.c.n.c.a.              ",
"    ] ..} T L L K W $.@.%.u.p.c.n.h.i. .} ] ] U / a.i.i.i.i.i.i.i.;.$.&.5.e.i.i.i.                  ",
"    ] | ] I L J ^ *.&.&.u.p.u.i.i.i.c.i.t.| [ ,.f.i.i.i.i.i.i.i.i.p.w.&.;.&.                        ",
"    ] | ] L K ^ *.$.$.u.d.i.p.i.i.i.i.i.p.i.u.i.i.i.i.i.i.i.i.i.i.i.a.u.w.&.                        ",
"    ] | _ K Q &.&.$.-.i.i.i.i.i.i.i.i.i.i.i.i.i.i.i.i.i.i.i.i.i.i.i.i.i.a.u.                        ",
"    ] | ( J #.&.$.&.e.i.u.i.i.i.i.i.i.i.i.i.i.i.i.i.i.i.i.i.i.i.i.i.i.u.i.l.                        ",
"    ] | Y P &.&.$.=.i.i.i.i.i.i.i.i.i.i.i.i.i.i.i.i.i.i.i.i.i.i.i.i.i.i.i.v.                        ",
"    } ] J W &.&.$.-.i.i.i.i.i.i.i.i.i.i.i.i.i.i.i.i.i.i.i.i.i.i.i.i.i.i.p.k.                        ",
"    ' E J ^ &.&.$.5.a.i.i.i.i.i.i.i.i.i.i.i.i.i.i.i.i.i.i.i.i.i.i.i.i.i.a.i.                        ",
"    I E K ~ &.&.$.5.i.i.i.i.i.i.i.i.i.i.i.i.i.u.i.i.i.i.i.i.i.i.i.i.i.i.c.i.                        ",
"      I K ~ &.&.$.5.i.i.i.i.i.i.i.i.i.i.i.i.i.i.i.i.i.i.i.i.i.i.i.i.i.i.n.                          ",
"      L T P $.&.@.;.p.i.i.i.i.i.i.i.i.i.i.i.i.i.i.i.i.i.i.i.i.i.i.i.i.z.i.                          ",
"      I E K #.&.$.*.i.i.i.i.i.i.i.i.i.i.i.i.i.i.i.i.i.i.i.i.i.i.i.i.a.h.                            ",
"        ( K ! &.&.$.w.a.i.i.i.i.i.i.i.i.i.i.i.p.i.i.i.i.u.i.i.i.i.i.s.                              ",
"        E L K ^ 5.$.*.i.i.i.i.i.i.i.i.i.i.i.i.u.i.i.a.w.=.i.i.i.i.s.-.                              ",
"        E L I K #.*.3.;.i.i.i.i.i.i.i.u.i.i.i.i.i.u.;.$.-.p.i.i.5.=.$.                              ",
"      I T Y E       *.*.k.c.p.i.i.i.i.a.s.i.i.u.5.=.=.w.w.a.i.a.=.*.&.                              ",
"      I E I             &.;.i.u.a.5.-.5.-.;.5.-.&.&.&.$.5.s.i.a.-.=.&.                              ",
"      L                     u.M.a.-.$.$.                  n.i.i.-.*.&.                              ",
"                              m.i.5.*.&.                  c.i.a.-.*.&.                              ",
"                              m.a.5.&.&.                  M.i.i.-.=.&.                              ",
"                              M.a.-.&.$.                  v.i.i.=.&.&.                              ",
"                              C.h.w.=.=.                  m.s.z.5.-.=.                              ",
"                              3.$.B p p                   $.V V i t t                               ",
"                              = = $ @ @                   * % % @ + +                               ",
"                              8 = * $ %                   8 ; ; * & &                               "
};
