/* XPM */
static char *be3a1c7def0f4ef9cfbbad69a5047c6dvFlj69NCuOYLunf9[] = {
/* columns rows colors chars-per-pixel */
"50 50 212 2 ",
"   c None",
".  c #000000",
"X  c #0A0101",
"o  c #00000C",
"O  c #080D06",
"+  c #110000",
"@  c #011300",
"#  c #151307",
"$  c #1D1901",
"%  c #1B1704",
"&  c #000012",
"*  c #00001B",
"=  c #001F11",
"-  c #231E07",
";  c #2B0808",
":  c #002D00",
">  c #292202",
",  c #332A00",
"<  c #322E16",
"1  c #000039",
"2  c #342336",
"3  c #2D2421",
"4  c #493D00",
"5  c #53003E",
"6  c #472937",
"7  c #00442D",
"8  c #5E5407",
"9  c #60550D",
"0  c #756906",
"q  c #6C6B15",
"w  c #6C6A1D",
"e  c #756D14",
"r  c #4E4624",
"t  c #424134",
"y  c #6F6B26",
"u  c #726A3E",
"i  c #767037",
"p  c #3A005E",
"a  c #3D2E44",
"s  c #550045",
"d  c #5A1243",
"f  c #600F58",
"g  c #601258",
"h  c #621C5C",
"j  c #4D3843",
"k  c #473751",
"l  c #69304E",
"z  c #470169",
"x  c #5C2C75",
"c  c #006A60",
"v  c #2E6A62",
"b  c #0B5C4E",
"n  c #495D56",
"m  c #78455D",
"M  c #756E42",
"N  c #7B7245",
"B  c #5C4762",
"V  c #63496C",
"C  c #68427C",
"Z  c #665271",
"A  c #78576A",
"S  c #607E79",
"D  c #857402",
"F  c #83772E",
"G  c #995977",
"H  c #88586E",
"J  c #AA5378",
"K  c #8E6678",
"L  c #1B8A77",
"P  c #028472",
"I  c #29897C",
"U  c #65837D",
"Y  c #9A8902",
"T  c #9A8A14",
"R  c #AD9A03",
"E  c #BBA700",
"W  c #BFAA00",
"Q  c #B6A200",
"!  c #BAA71C",
"~  c #998A25",
"^  c #AF9F2D",
"/  c #C2AC00",
"(  c #C4AF23",
")  c #E9D000",
"_  c #F5DB00",
"`  c #FFE805",
"'  c #FFE617",
"]  c #F5DB26",
"[  c #E9D126",
"{  c #FFEA25",
"}  c #FFE93B",
"|  c #988F53",
" . c #B6AA66",
".. c #B1A764",
"X. c #BCB067",
"o. c #C2B66D",
"O. c #C5BA71",
"+. c #CCBB50",
"@. c #D3C043",
"#. c #FFED40",
"$. c #FFE943",
"%. c #FFF45A",
"&. c #FEE752",
"*. c #DED07D",
"=. c #D5C879",
"-. c #E3D374",
";. c #F9EA6E",
":. c #5F2683",
">. c #602783",
",. c #642B87",
"<. c #755282",
"1. c #83519D",
"2. c #804F9B",
"3. c #987384",
"4. c #886993",
"5. c #8D6F8F",
"6. c #B46B8E",
"7. c #905AAD",
"8. c #9A77A9",
"9. c #9861B5",
"0. c #9360AE",
"q. c #C76C98",
"w. c #D572A2",
"e. c #F375AF",
"r. c #B97ADA",
"t. c #B575D6",
"y. c #C07EE1",
"u. c #229684",
"i. c #259887",
"p. c #36978B",
"a. c #3CAC9E",
"s. c #3FBBAB",
"d. c #45B7A9",
"f. c #5BA59B",
"g. c #45CDB8",
"h. c #5CD5C4",
"j. c #69FCE9",
"k. c #72FFED",
"l. c #74FFF2",
"z. c #7CFFF4",
"x. c #58E5D1",
"c. c #B5869B",
"v. c #A885BA",
"b. c #BF8CA2",
"n. c #93BEB7",
"m. c #89B4AC",
"M. c #C388A3",
"N. c #DD89B2",
"B. c #CE8FAB",
"V. c #EA8EB9",
"C. c #E38BB4",
"Z. c #F985BC",
"A. c #ED95BD",
"S. c #92C1BA",
"D. c #99C4BD",
"F. c #88C1B8",
"G. c #E2D683",
"H. c #FDED83",
"J. c #FDEE8F",
"K. c #F3E489",
"L. c #FFF28D",
"P. c #FFF583",
"I. c #FDEF91",
"U. c #FFF292",
"Y. c #FFFA96",
"T. c #FEF2A4",
"R. c #FEF3B4",
"E. c #B98BCF",
"W. c #CA9CDE",
"Q. c #C396D9",
"!. c #C28BDA",
"~. c #F997C5",
"^. c #DCB4C9",
"/. c #FEA3CE",
"(. c #FBAACF",
"). c #F6A9CD",
"_. c #FCAED2",
"`. c #E7BED3",
"'. c #FBB6D6",
"]. c #F9B9D6",
"[. c #FEBCDB",
"{. c #F4B4D1",
"}. c #ECAFCB",
"|. c #C489E2",
" X c #CC9FE1",
".X c #CB96E0",
"XX c #D09AE1",
"oX c #CDA1E1",
"OX c #D1A4E5",
"+X c #D4A5E9",
"@X c #D5AAE9",
"#X c #CFB6E8",
"$X c #ABDDD5",
"%X c #B3E7DF",
"&X c #96FFF6",
"*X c #83FFF1",
"=X c #BAFDF3",
"-X c #BAFDF5",
";X c #B5F8F0",
":X c #F8C4DE",
">X c #EBC2D7",
",X c #F1CEE9",
"<X c #C5FEF5",
"1X c #CAFFF6",
"2X c #C4FFFB",
"3X c #CCFFFE",
"4X c #D1FDF9",
"5X c #FDE4EE",
"6X c #E3FDF9",
"7X c white",
"8X c #FEFAF6",
"9X c #FEFBEB",
/* pixels */
"                                                                                      .             ",
"            # #                                                                       #             ",
"          $ . .                                                                     . . %           ",
"        . . o.r .                                                                 . t o.. .         ",
"      O > ^ L.=.r .                                                             & 8 +.Y. .< O       ",
"    - . T ' } P.O.. # #                                                       % . ! ` &.Y.| . %     ",
"      > . 0 ` ^ * $                     . .                                     % . R ' F o >       ",
"          . T , .                     . . X                                       . > T .           ",
"          - . o                     . G m .                                         . o -           ",
"            -                     . G /.H .                                           $             ",
"                                . l ~.].K .       . O .                                             ",
"                                . q._.:XB..     . < .                                               ",
"                              . 6 ~.'.[.].j . . | | .                                               ",
"                                B.~.'.'.:XB.. . G.| .       .                                       ",
"                                A.~.5X8X].[.M.. -.-.. .   . - 2                                     ",
"                              . 6.~.,X5X].].].1 Y %.@.0 0 r . o .                                   ",
"                              . H ~.(.'.].].[.b.. R { ] ( . A b.K . .                               ",
"                                X N./.'.].{.].[.c.. o : o A {.:X[.}.3.o .                           ",
"                                . l V.~./._.(._._.A.6.6.N._._.).)._._.M.@ =                         ",
"                                  . n q.C.V.V.V.C.~.~.~.~.C.Z.Z.Z.Z.Z.~.q..                         ",
"                          . . . . . . . . X X X + . . . . ; ^.>X`.>X`.`.>X5..                       ",
"                      . . I F.D.D.D.D.S.S.S.n.n.S.S.S.S.n.S.<X1X<X<X-X<X<X%X.                       ",
"                      X s.&X3X3X3X2X3X3X3X3X3X4X3X3X3X3X3X3X1X<X3X<X<X<X<X3XS .                     ",
"                    . I l.=X6X4X<X6X4X<X1X<X<X<X<X<X<X<X1X<X<X<X<X<X<X<X<X3Xm.X                     ",
"                    . d.*X1X7X6X<X7X4X<X<X<X<X<X<X<X<X<X%X3X<X<X<X<X<X<X<X3XD.X                     ",
"                    . d.z.<X1X1X1X1X4X1X3X<X3X1X1X1X1X<Xn $X1X<X3X<X<X1X1X2Xf..                     ",
"                    . v j.&X;X=X=X=X=X=X=X=X=X=X=X;X2Xn.. U 2X-X=X-X-X-X-Xz.c .                     ",
"                      . p.j.l.z.l.l.l.l.l.k.l.j.l.l.h.* 9 . a.k.l.j.k.l.j.p.X                       ",
"                  . . . . 7 u.u.u.u.u.u.i.L a.k.x.L o D ] ! . b g.z.h.P 7 . . . .                   ",
"              . o a Z V Z B g g g f f f h s <.#Xv.5 . T ' ( . ; 4.#Xv.s V Z V V a . .               ",
"            . . 1.E..XoX XoXoX+XoXoXoXoXOXoXOXXX+XOX8.X e . <.E.+XXXOXoXoXoX XOXW.8.. .             ",
"            . 7.|.#X,XOX XoXoXoXoXoXoXoX X X XoXW.W.@X4.O B oX@XW.oXoX XoXoX X XOX@Xv..             ",
"          . x r.|.,X7XOX.XoXW.oXoXoX X X X X X XoXW.OXQ.3 v.OXW.oXoXW. X X XW.oXW.oX+XZ X           ",
"          . <.|. XoX#XoXoXoXW.oXoXW.W. X X XoXoXoX X XOXE. XoXoXoXoXoXoXoX XoXoXoXW.+X8..           ",
"          . 1.r. XoX XoXoX@X+XoXoX+X+XoX X X X XoXoXoXW.oXoX X X XoX XoX X X X X X X@X8..           ",
"          . <.t.E.OXoXoXoXv.8.W.+Xv.8.Q.OXoXoXoXoXoXoXoX XoXoX XOX XoX XoXoXoX XoX X XC .           ",
"            . 9.r.!.Q..X<.. . V 4.o . k Q. XW.W.W.W. XW.W.W. XW.W.W.W.Q..XW.W.W.W.|.9..             ",
"            @ 2 9.t.r.t.O 6.w.. O 6.C.. 0.y.t.r.r.r.r.r.r.t.r.r.r.r.r.r.r.r.r.t.t.0.2 @             ",
"          . . . . p :.x X l e.w.q./.6.o z ,.:.>.x >.>.>.>.:.>.>.x >.>.>.,.:.:.:.p . . . .           ",
"    O . , M N M M y q w N X s e.e.3.. M y 0 q q q q q q q q q q w q q q q q q q y M M N u < . X     ",
"  . o R ;.J.L.U.L.I.U.I.U.*.. l J .  .U.L.I.U.I.U.U.I.U.U.I.U.I.U.I.U.U.I.U.I.I.U.L.L.U.J.K.... .   ",
"  o / %.I.T.T.U.J.I.J.I.J.Y.G.X .  .Y.L.J.I.J.J.J.J.I.J.J.I.J.J.J.I.J.J.J.I.J.J.J.I.J.J.I.U.Y.o..   ",
". 0 { H.K.8X9X;.I.J.J.J.J.J.U.=. .U.J.J.J.I.I.J.J.J.J.J.J.J.J.J.J.J.J.J.J.J.I.J.J.J.J.J.J.J.L.Y.N . ",
"o Q #.J.L.R.R.J.I.J.J.L.J.J.J.U.U.J.J.J.J.L.J.J.J.J.J.I.J.J.I.J.J.J.J.J.I.J.J.J.J.J.I.J.J.J.J.U. .. ",
"& W &.L.I.H.H.U.I.J.J.J.J.J.J.J.J.J.J.I.J.I.J.J.I.J.L.I.J.J.J.J.I.J.L.I.I.J.J.J.J.I.J.J.J.J.J.U.o.. ",
". Y { H.I.I.I.I.J.J.J.J.J.I.J.J.U.U.J.L.I.L.J.J.J.J.J.J.J.J.J.J.J.J.J.J.J.J.J.J.I.L.J.I.J.J.I.P.~ . ",
". o ) #.H.J.J.J.J.J.J.J.J.J.J.J.J.K.J.J.J.J.I.J.J.I.J.J.J.J.J.I.J.J.J.J.I.J.J.J.J.J.L.J.J.L.;.[ . o ",
"  o 8 ) ` } #.#.#.} #.#.#.#.#.} #.#.#.#.#.} } #.#.#.} #.#.#.#.#.#.#.} $.} #.} $.#.} #.#.} { ) 8 o   ",
"    . o T E W W W W W W W W W W W W W W W W W W W W W W W W W / W W Q ` _ Q ` _ Q / W W Q Y o o     ",
"      . . o o o o o o o o o o o o o o o o o o o o o o o o o o o o o o     o   ~ o o o o o o .       "
};
