/* XPM */
static char *result[] = {
/* columns rows colors chars-per-pixel */
"50 50 251 2 ",
"   c #000B02",
".  c #1B0000",
"X  c #0E1510",
"o  c #281918",
"O  c #381914",
"+  c #2C0E0D",
"@  c #002400",
"#  c #002617",
"$  c #0D2F0A",
"%  c #28281A",
"&  c #3B261A",
"*  c #3D291C",
"=  c #362618",
"-  c #3A351B",
";  c #2A3308",
":  c #003626",
">  c #173328",
",  c #1D2B27",
"<  c #292B27",
"1  c #25322C",
"2  c #393629",
"3  c #2A3C35",
"4  c #343330",
"5  c #2D1B22",
"6  c #432B1B",
"7  c #4A2D1C",
"8  c #452618",
"9  c #4A341C",
"0  c #55321C",
"q  c #512C15",
"w  c #671A24",
"e  c #791628",
"r  c #442E24",
"t  c #5B2627",
"y  c #4C3323",
"u  c #493628",
"i  c #523624",
"p  c #573B28",
"a  c #573B35",
"s  c #483235",
"d  c #642A28",
"f  c #643E26",
"g  c #712933",
"h  c #591A21",
"j  c #00450E",
"k  c #004837",
"l  c #1E4A31",
"z  c #3A4424",
"x  c #2D433B",
"c  c #26473D",
"v  c #384837",
"b  c #2F4716",
"n  c #51500F",
"m  c #6E590F",
"M  c #474928",
"N  c #574429",
"B  c #57552B",
"V  c #584635",
"C  c #595635",
"Z  c #484C30",
"A  c #63432C",
"S  c #6B4329",
"D  c #684A27",
"F  c #68582D",
"G  c #795829",
"H  c #6C4C34",
"J  c #664937",
"K  c #6E583B",
"L  c #7D5334",
"P  c #755A36",
"I  c #774E32",
"U  c #486630",
"Y  c #766838",
"T  c #6F6A33",
"R  c #506117",
"E  c #323D5F",
"W  c #673949",
"Q  c #732D47",
"!  c #5A3441",
"~  c #005847",
"^  c #165449",
"/  c #294D45",
"(  c #364C46",
")  c #2A564B",
"_  c #37574B",
"`  c #285E53",
"'  c #385856",
"]  c #076D5B",
"[  c #26685A",
"{  c #326255",
"}  c #34655A",
"|  c #336B5C",
" . c #3D675A",
".. c #017362",
"X. c #027A68",
"o. c #187869",
"O. c #1E6E61",
"+. c #346E61",
"@. c #396F61",
"#. c #2D7263",
"$. c #2E7C6C",
"%. c #257768",
"&. c #327364",
"*. c #337B6C",
"=. c #3B7B6C",
"-. c #387568",
";. c #337366",
":. c #274862",
">. c #554D45",
",. c #53574D",
"<. c #6D5945",
"1. c #785846",
"2. c #74484E",
"3. c #476759",
"4. c #456348",
"5. c #7B7443",
"6. c #716A53",
"7. c #534474",
"8. c #44776A",
"9. c #4E6F74",
"0. c #7C606C",
"q. c #8D1431",
"w. c #A81C39",
"e. c #8A2736",
"r. c #98293B",
"t. c #82222F",
"y. c #A82C3B",
"u. c #83553B",
"i. c #875133",
"p. c #85682F",
"a. c #876B35",
"s. c #9B7737",
"d. c #956E2C",
"f. c #A57533",
"g. c #A7751B",
"h. c #873654",
"j. c #983D58",
"k. c #922F4E",
"l. c #AB3849",
"z. c #AE3652",
"x. c #B63A6C",
"c. c #B4306B",
"v. c #8D1D50",
"b. c #D33B78",
"n. c #835C43",
"m. c #87475C",
"M. c #914E4E",
"N. c #A9545A",
"B. c #B24C53",
"V. c #856249",
"C. c #946848",
"Z. c #987355",
"A. c #994562",
"S. c #955668",
"D. c #AB5A76",
"F. c #B75679",
"G. c #AC4A70",
"H. c #896972",
"J. c #AE6271",
"K. c #A6615B",
"L. c #C74C7B",
"P. c #C6537B",
"I. c #CD7B79",
"U. c #0F8775",
"Y. c #38826F",
"T. c #348272",
"R. c #3A8374",
"E. c #368C7A",
"W. c #3A8C7B",
"Q. c #3D8878",
"!. c #318B78",
"~. c #418575",
"^. c #A68437",
"/. c #8B8937",
"(. c #E4B800",
"). c #AF8B4A",
"_. c #B38F66",
"`. c #9D8453",
"'. c #C89348",
"]. c #C49758",
"[. c #CF9750",
"{. c #E8AF5C",
"}. c #D49566",
"|. c #E29B67",
" X c #E8B36A",
".X c #2C5784",
"XX c #594E8C",
"oX c #546E98",
"OX c #6A6998",
"+X c #5677A8",
"@X c #676598",
"#X c #A13780",
"$X c #E33E82",
"%X c #9C648B",
"&X c #B76D8B",
"*X c #A36296",
"=X c #DA4E88",
"-X c #D6568A",
";X c #D85796",
":X c #CC5584",
">X c #E6588C",
",X c #E95A94",
"<X c #E94E8D",
"1X c #C96688",
"2X c #D4648B",
"3X c #DA6995",
"4X c #C87995",
"5X c #D87698",
"6X c #CD728E",
"7X c #E96999",
"8X c #E5739A",
"9X c #F2699F",
"0X c #DB6FA4",
"qX c #F96CA7",
"wX c #E97AA4",
"eX c #F77BA7",
"rX c #FB76B3",
"tX c #E666A2",
"yX c #F755A0",
"uX c #FF7DC4",
"iX c #389784",
"pX c #3FA28C",
"aX c #429A86",
"sX c #578B88",
"dX c #66919A",
"fX c #43A48F",
"gX c #548DB3",
"hX c #6796AC",
"jX c #70A9B5",
"kX c #A09DA8",
"lX c #D38694",
"zX c #E7918E",
"xX c #DA84A6",
"cX c #DC94AB",
"vX c #D692B1",
"bX c #E687A9",
"nX c #F684AC",
"mX c #E995AD",
"MX c #EA8CB2",
"NX c #FC88B4",
"BX c #F998B8",
"VX c #E895B4",
"CX c #EFA8BC",
"ZX c #F2A6B3",
"AX c #84BEC8",
"SX c #FE9BC4",
"DX c #FAA6C5",
"FX c #FDB6D1",
"GX c #FFB6E4",
"HX c #FFCEE6",
"JX c None",
/* pixels */
"JXJXJXJXJXJXJXJXJXJXJXJXJXJXJXJXJXJXJXJXJXJXJXJXJXJXJXJXJXJXJXJXJXJXJXJXJXJXJXJXJXJXJXJXJXJXJXJXJXJX",
"JXJXJXJXJXJXJXJXJXJXJXJXJXJXJXJXJXJXJXJXJXJXJXJXH A JXJXJXJXJXJXJXJXJXJXJXJXJXJXJXJXJXJXJXJXJXJXJXJX",
"JXJXJXJXJXJXJXJXJXJXJXJXJXJXJXJXJXJXJXJXJXJXJXJXA p V JXJXJXJXJXJXJXJXJXJXJXJXJXJXJXJXJXJXJXJXJXJXJX",
"JXJXJXJXJXJXJXJXJXJXJXJXJXJXJXJXJXJXJXJXJXJXJXu.r y i >.JXJXJXJXJXJXJXJXJXJXJXJXJXJXJXJXJXJXJXJXJXJX",
"JXJXJXJXJXJXJXJXJXJXJXJXJXJXJXJXJXJXJXJXJXJXL H r A O r 1.JXJXJXJXJXJXJXJXJXJXJXJXJXJXJXJXJXJXJXJXJX",
"JXJXJXJXJXJXJXJXJXJXJXJXJXJXJXJXJXJXJXJXJXJXL = p I = 7 a JXJXJXJXJXJXJXJXJXJXJXJXJXJXJXJXJXJXJXJXJX",
"JXJXJXJXJXJXJXJXJXJXJXJXJXJXJXJXJXJXJXJXH H P A # f 7 * 6 r JXJXJXJXJXJXJXJXJXJXJXJXJXJXJXJXJXJXJXJX",
"JXJXJXJXJXJXJXJXJXJXJXJXJXJXJXJXJXJXJXn.L O y 9 g d y = i q u JXJXJXJXJXJXJXJXJXJXJXJXJXJXJXJXJXJXJX",
"JXJXJXJXJXJXJXJXJXJXJXJXJXJXJXJXJXJXV 1.f i Z d y.q.% r S 0 = 2 J JXJXJXJXJXJXJXJXJXJXJXJXJXJXJXJXJX",
"JXJXJXJXJXJXJXJXJXJXJXJXJXJXJXJXA H p # # & V l.g l.t.; * y 8 r p u JXJXJXJXJXJXJXJXJXJXJXJXJXJXJXJX",
"JXJXJXJXJXJXJXJXJXJXJXJXJXJXH H i.< 1 h.Q   g r.] 3.w.w > S 0 7 0 & a J JXJXJXJXJXJXJXJXJXJXJXJXJXJX",
"JXJXJXJXJXJXJXJXJXJXJXJXJXI C.J N V s <X<Xj.O 2 | U.6.y.h i f 6 % i p 7 a JXJXJXJXJXJXJXJXJXJXJXJXJX",
"JXJXJXJXJXJXJXJXJXJXJXJX<.C.C.D J <.2.>X>X,XA.  ) =.U.6.w.t 9 6 p r y 0 8 y J JXJXJXJXJXJXJXJXJXJXJX",
"JXJXJXJXJXJXJXJXJXJXJXC.n.K L p i - m.qXmX8X>Xg : -.*...1.w.& % p 9 & 0 & o r JXJXJXJXJXJXJXJXJXJXJX",
"JXJXJXJXJXJXJXJXJXJXJX_.n.6 i A S $ D.qXBXmX7XG.: | *.+...2.q.y * * 9 8 & 7 8 u JXJXJXJXJXJXJXJXJXJX",
"JXJXJXJXJXJXJXJXJXJXn.P S Z.J & p v P.eXmXBXbX3X! ~ =.&.-...M.r.= * f 0 * 6 7 O u JXJXJXJXJXJXJXJXJX",
"JXJXJXJXJXJXJXJXJXJXZ.9 K Z.D 7 i V ;XNXSXxXxXxXm.k =.=.=...~ w w < i 6 o r 8 & y JXJXJXJXJXJXJXJXJX",
"JXJXJXJXJXJXJXJXJXV.<.J H i.S u V i.P.qXBXvX0X0Xm.# _ ~ c W Q Q t   X o r 0 7 & 6 s JXJXJXJXJXJXJXJX",
"JXJXJXJXJXJXJXJXJX_.Z.* N A p C N.y.' &X0X0X;X;XS.@ X D.7X7X,X<Xb.j.5   8 7 & 6 & u JXJXJXJXJXJXJXJX",
"JXJXJXJXJXJXJXJXJXC.n.H V H Z B.B.@XgX+X@X@X%X&XH.a 4XMXVXmXcX8X$Xb.t O o * 6 6 7 u JXJXJXJXJXJXJXJX",
"JXJXJXJXJXJXJXJXJX1.P u.I M N.l.>.gXgX+XOXoXXXH.V #X0X0XxXvXcX,X$Xh.# r.e % f 8 O 2 JXJXJXJXJXJXJXJX",
"JXJXJXJXJXJXJXJXJX6.N 7 <.N.l. .=.hXjXhXhXhX@XZ 7.7.#X0XMXvXxX>Xk.k O.} r.e = 6 & r JXJXJXJXJXJXJXJX",
"JXJXJXJXJXJXJXJXJX'.G X 1.z.3.fX8.dXAXAXdX8.M >.+XXX7.*XmXbX8XG.: | *.X. .r.w % i u JXJXJXJXJXJXJXJX",
"JXJXJXJXJXJXJXJXJX{.'.P a.% 4.aXpX8.oX~.8.4.s -.jXoXXX:.%X:Xx.x ` #.T.$.o.) q.t y JXJXJXJXJXJXJXJXJX",
"JXJXJXJXJXJXJXJXJXJX[.^.a.G m ~ aXiXY.} Q.4.^ sXAXdXoXoX:.> X.%.+.$.$.;.o.>.e.7 2 JXJXJXJXJXJXJXJXJX",
"JXJXJXJXJXJXJXJXJXJX].T s.d.p.G 3.iXfXaXR.W.E.sXjXjXgXoX3 ^ *.+.#.$.#.;.o.h.e r a JXJXJXJXJXJXJXJXJX",
"JXJXJXJXJXJXJXJXJXJX).Y Y T G s.Z Q.aX~.Y.~.( , 9.hXoX' } =.iX+.#.;.#.%.3.r.8 % JXJXJXJXJXJXJXJXJXJX",
"JXJXJXJXJXJXJXJXJXJXJX`.R l B B a.5.U.aX=.2 ) *.. , ` | =.iX*.$.#.$.*.O.W e.y a JXJXJXJXJXJXJXJXJXJX",
"JXJXJXJXJXJXJXJXJXJXJX].N.k.J z T C ;.iX@.o / &.1 ' =.iXiXiX!.-.-.*.*.;.e.d p JXJXJXJXJXJXJXJXJXJXJX",
"JXJXJXJXJXJXJXJXJXJXJXbXSXqXF.t k.= k ( 3 1 3 5 1 ` ( ` +.' -.+.3 / O.,.e.* u JXJXJXJXJXJXJXJXJXJXJX",
"JXJXJXJXJXJXJXJXJXJXrXyXNXDXwX<XrX=X. = 5 , 3 / +.1 . X o . < 5 > + ^ 2.t.2 a JXJXJXJXJXJXJXJXJXJXJX",
"JXJXJXJXJXJXJXJXJX9XGXDXnXmXBXSXFXSXG.j x 1 3 5 3 ( / ) { +.=.[ 3 k k e.q 0 JXJXJXJXJXJXJXJXJXJXJXJX",
"JXJXJXJXJXJXJXJXJXJXSXFXBX X{.DXDXeXj.k _ . c } o c $.!.W.Q.R.=.O.0.L.x.z.o A.JXJXJXJXJXJXJXJXJXJXJX",
"JXJXJXJXJXJXJXJXJXJXJXSXDXZXzXDX9Xk.;  .@.+ )  .< / $.iXW.E.8.=.~ 3XNXlX2Xc.L.1XF.JXJXJXJXJXJXJXJXJX",
"JXJXJXJXJXJXJXJXJXJXJXFXHXDXwXFXBXc.$ ,.T.{ x x { +.*.iXW.R.-.| W =XeXlXmX,XD.&XP.JXJXJXJXJXJXJXJXJX",
"JXJXJXJXJXJXJXJXJXJXJXFXHXnXP.DXDXP.$ u [ &.Y.Y.W.=.$.-.=.8...D.rXwX3XD.lX1X&X4XJXJXJXJXJXJXJXJXJXJX",
"JXJXJXJXJXJXJXJXJXJXJXBXBXK.m G.1XM.d.G c +.E.W.W.=.$.E.*.@...1XBXCX4X}.(.4XbXP.JXJXJXJXJXJXJXJXJXJX",
"JXJXJXJXJXJXJXJXJXJXJX^.g.b a.m j ).^.A ( { R.W.W.*.$.E.*.-...H.nXBX0X}.{.J.6X6XP.JXJXJXJXJXJXJXJXJX",
"JXJXJXJXJXJXJXJXJXJXG F ^.Y a.p.a.Y B $ ~  .R.W.W.*.*.iXT.#.R...3.P.7XmXMXb.4XmX2XJXJXJXJXJXJXJXJXJX",
"JXJXJXJXJXJXJXJXJX].P C z n z M T z M j.h.~ 8.W.*.| +.E.!.#.$.=.] D.8XCXBXc.G.1XA.JXJXJXJXJXJXJXJXJX",
"JXJXJXJXJXJXJXJXJX Xf.^.D - B T n   F.8X8XW ~ 8.*.*.#.T.T.$.$.+.;.,.>XNXqXk.; L M JXJXJXJXJXJXJXJXJX",
"JXJXJXJXJXJXJXJXJX`.p.'.p.% M L j.h.1XcXBXc.Q [ *.T.#.*.#.;.+.| ;.v k.N.C.0 n G JXJXJXJXJXJXJXJXJXJX",
"JXJXJXJXJXJXJXJXJX).z B p.D N P.0XxX1XxXwX1XbXA.~ =.#.*.&.$.$.&.o.>.h m d.D - B JXJXJXJXJXJXJXJXJXJX",
"JXJXJXJXJXJXJXJXJX}.^.9 F n u.8XlX&X6XI.5XvXNXD.k @.[ &.{ #.$.+.O.0.i.a.G G D 9 F P JXJXJXJXJXJXJXJX",
"JXJXJXJXJXJXJXJXJXJX].^.V.G.z.,X5X&X'.}.bX2X&Xs ^ } [ &.| =.*.+.%.m.i.p.B s.s.N H C JXJXJXJXJXJXJXJX",
"JXJXJXJXJXJXJXJXJX_.5./.lX,X-X=X=X6X5XxXBX8Xv.JXJXJXJXJXJXJXJX| ..a k.C z T F z M JXJXJXJXJXJXJXJXJX",
"JXJXJXJXJXJXJXJXJX_.5.T Z.;XzX|.tX4XDX5XxXNXJXJXJXJXJXJXJXJXJXJXJXJXJXV z C Z s JXJXJXJXJXJXJXJXJXJX",
"JXJXJXJXJXJXJXJXJXJX5.U 1XrXzXzXqX5XSX=X=X7XJXJXJXJXJXJXJXJXJXJXJXJXJXJXJXJXJXJXJXJXJXJXJXJXJXJXJXJX",
"JXJXJXJXJXJXJXJXJXJX~.T 2XrXrXSXyX=X7XJXJXJXJXJXJXJXJXJXJXJXJXJXJXJXJXJXJXJXJXJXJXJXJXJXJXJXJXJXJXJX",
"JXJXJXJXJXJXJXJXJXJXJXJXJXJXJXrXJXJXJXJXJXJXJXJXJXJXJXJXJXJXJXJXJXJXJXJXJXJXJXJXJXJXJXJXJXJXJXJXJXJX"
};
