/* XPM */
static char *ab01954b007d4e7ea3d57814383dbbabAZf2VOkVVqOHLkHF[] = {
/* columns rows colors chars-per-pixel */
"50 50 250 2 ",
"   c #7B0A2D",
".  c #75072C",
"X  c #670C33",
"o  c #740C33",
"O  c #7B0C34",
"+  c #7B0D39",
"@  c #770837",
"#  c #6A1338",
"$  c #7C143C",
"%  c #791639",
"&  c #71112E",
"*  c #7C203E",
"=  c #5F072F",
"-  c #7D0F42",
";  c #7A1944",
":  c #7F1A54",
">  c #7E244A",
",  c #792446",
"<  c #86082B",
"1  c #8A0634",
"2  c #840A34",
"3  c #8B0C33",
"4  c #840D3A",
"5  c #8C0C3B",
"6  c #840533",
"7  c #950C37",
"8  c #83143B",
"9  c #8C133C",
"0  c #83193A",
"q  c #8A1438",
"w  c #93143D",
"e  c #97163B",
"r  c #88112F",
"t  c #A3113C",
"y  c #8D0E42",
"u  c #840E44",
"i  c #930E42",
"p  c #9A0C45",
"a  c #851442",
"s  c #8B1543",
"d  c #841C43",
"f  c #8B1B44",
"g  c #8C164C",
"h  c #8C1D4B",
"j  c #851A4D",
"k  c #931344",
"l  c #9B1345",
"z  c #931B44",
"x  c #9A1C44",
"c  c #94154A",
"v  c #9C144B",
"b  c #931C4C",
"n  c #9C1C4B",
"m  c #8D1D53",
"M  c #891957",
"N  c #9C1553",
"B  c #941D54",
"V  c #9B1C53",
"C  c #931C5B",
"Z  c #9C1C59",
"A  c #951555",
"S  c #A60E4A",
"D  c #A5144B",
"F  c #AA144B",
"G  c #A31C4D",
"H  c #A71746",
"J  c #A41C54",
"K  c #AC1D54",
"L  c #A41C5B",
"P  c #AD1B58",
"I  c #A61554",
"U  c #B41D5B",
"Y  c #B71958",
"T  c #842244",
"R  c #8D2244",
"E  c #8B244B",
"W  c #8D2A4B",
"Q  c #84264B",
"!  c #932244",
"~  c #93234C",
"^  c #9B234C",
"/  c #932A4C",
"(  c #982A4B",
")  c #8D2B52",
"_  c #8A2658",
"`  c #932353",
"'  c #9B2454",
"]  c #932C54",
"[  c #9B2C54",
"{  c #94235B",
"}  c #9C245C",
"|  c #942B5B",
" . c #9C2B5B",
".. c #8D3355",
"X. c #933155",
"o. c #9B3254",
"O. c #94335A",
"+. c #9C335B",
"@. c #9A3A5C",
"#. c #963A5C",
"$. c #93334F",
"%. c #A2224C",
"&. c #A62B4F",
"*. c #A32452",
"=. c #AB2355",
"-. c #A32B53",
";. c #A4255B",
":. c #AB245D",
">. c #A32B5C",
",. c #AA2C5C",
"<. c #A92A56",
"1. c #B4245D",
"2. c #B5285D",
"3. c #A2355B",
"4. c #AA325D",
"5. c #A13A5C",
"6. c #A43256",
"7. c #961B62",
"8. c #A81C64",
"9. c #B91B67",
"0. c #9E2563",
"q. c #952B64",
"w. c #9B2B64",
"e. c #9D2C69",
"r. c #952767",
"t. c #9D3364",
"y. c #9C336C",
"u. c #983A66",
"i. c #9E3B72",
"p. c #993875",
"a. c #942D6B",
"s. c #A42563",
"d. c #AB2463",
"f. c #A32D63",
"g. c #AC2C64",
"h. c #AB246C",
"j. c #A22B6A",
"k. c #AB2B6A",
"l. c #A3266C",
"z. c #B42463",
"x. c #B32C63",
"c. c #B22C6C",
"v. c #B92868",
"b. c #A43364",
"n. c #AB3365",
"m. c #A53B62",
"M. c #AA3B65",
"N. c #A3346B",
"B. c #AC346B",
"V. c #A63B6B",
"C. c #AB3B6C",
"Z. c #B53165",
"A. c #B3336C",
"S. c #B23A6D",
"D. c #B83868",
"F. c #AC2A74",
"G. c #A92973",
"H. c #B72C76",
"J. c #A43472",
"K. c #AB3472",
"L. c #A43A73",
"P. c #AC3B72",
"I. c #AB377A",
"U. c #B43473",
"Y. c #BD3474",
"T. c #B43B73",
"R. c #BA3B74",
"E. c #B3327B",
"W. c #BB3B7C",
"Q. c #B8387A",
"!. c #C62C6C",
"~. c #C32766",
"^. c #C43473",
"/. c #C23B7B",
"(. c #C53777",
"). c #C32B7E",
"_. c #C41E66",
"`. c #99415E",
"'. c #A1415D",
"]. c #9B4266",
"[. c #9A4578",
"{. c #A94769",
"}. c #A44374",
"|. c #AD4174",
" X c #A4457D",
".X c #AD447B",
"XX c #AD4A7C",
"oX c #A44A7A",
"OX c #B24476",
"+X c #BA4376",
"@X c #B5437A",
"#X c #BB427B",
"$X c #B24A7C",
"%X c #BB497B",
"&X c #B84876",
"*X c #AF5373",
"=X c #C2427D",
"-X c #C8487C",
";X c #BC3E89",
":X c #C43E85",
">X c #AB4383",
",X c #A84884",
"<X c #B24584",
"1X c #B44B8B",
"2X c #BC4B8B",
"3X c #B84885",
"4X c #AB5589",
"5X c #B4598E",
"6X c #B85489",
"7X c #BE5B9C",
"8X c #B95993",
"9X c #B44F91",
"0X c #BB6597",
"qX c #BF66A1",
"wX c #9F4B86",
"eX c #CB4A84",
"rX c #C24B8B",
"tX c #CB4C8B",
"yX c #C64684",
"uX c #D24B84",
"iX c #C3558B",
"pX c #CD538C",
"aX c #C6578A",
"sX c #D1538C",
"dX c #D45C8D",
"fX c #C64893",
"gX c #CD5492",
"hX c #C75998",
"jX c #D45593",
"kX c #D45D97",
"lX c #D4618E",
"zX c #C86498",
"xX c #D5639D",
"cX c #D96699",
"vX c #C75DA1",
"bX c #C662A3",
"nX c #C969A6",
"mX c #D56AA6",
"MX c #C972A9",
"NX c #DB71A4",
"BX c #D274AB",
"VX c #DA74AD",
"CX c #D479AE",
"ZX c #DC7AAF",
"AX c #D979B3",
"SX c #CE75B5",
"DX c #E27CB6",
"FX c #E375A8",
"GX c #DB81B4",
"HX c #E280BD",
/* pixels */
"mXmXnXSXnX2XmXxXxXcXxXxX1X2X;X;X:X;X;X;XH.9.;X:X9.9.G.7.7.7.7.7.M e.d.S S P P J M.O.@ 4 4 u - : > X ",
"VXAXHXHXBX8XmXVXNXNXmXxX2XhXvXhXfXfX;XI.E.h.H.H.9.;X;XG.7.7.7.7.M J.s.D v l k y  .) + a u u @ ; > = ",
"7X4XqXqX8X4X0X0X0X0XzXzX<X1X<X,X<X>XI.p.k.e.J.e.h.G.G.r.7.M M : : e.Z Z B s b 8 ..) o o + # # , > # ",
"0X[.4X5X4X[.,XoXp.].oX$Xi.i.p.q.J.J.J.e.j.l.r.C 7.7.7.M 7.7.7.: j 7.g A B h g s ) ] ; j E $ # ; > , ",
"GX5XGXGXAXVXVXZXzXlXcXmXkXkXkXrX;XfXtXfX:X:XQ.l.F.h.h.G.>X>X7.7.7.I Z c B ;.i i n ' z b ' a o + # ; ",
"GX0XMXGXDXVXVXZXzXzXcXxXmXxXkXrXtXjXgXjXtXeX#XG.H.F.G.G.l.h.8.7.8.N 8.c } g.i i i k 4 d ] $ o $ @ ; ",
"XX[.oX4X5X4X5X5X].}.XXXXXX.X$XV.N.P.V.V.s.g. .{ { B _ q.C C 7.A M g m a j ` y y 4 $ o ; #., # # ; & ",
"0X0XqX0X4XoX5XzXzX5XzX6XXX}.3X|.OX&XV.V.f.B.n.b.g.f.y.y.{ C 7.7.{ e.0.B j f c k b.) $ o .., % > @.$ ",
"GXGXGXGXCX8XNXGXFXNXGXcX6XeXdXpXtXeXtX=X/./.(.Y.(.Y.Q.F.k.d.h.c.C k.z.I I v D i ;.} 4 y 4 d + d &.< ",
"BXBXCXCXBX0XzXNXNXcXNXcXiXiXhXpXjXjXpX=X(./.Y.(./.).Y.E.k.d.h.s.Z h.z.Y D D p c ' b . 6 4 @ $ f -.3 ",
"wXp.oX,X[.p.p.i.u.[.{.u.q.a.a.7.w.t.t.{ } f.| w.>.Z } >.B B ` : j g N y u f + a h E - T ] ; Q ) o.0 ",
"qX4XqXMXMXnX0XqX,X5XhX6X<X>X>Xp..X6X3X&X%XOXt.b.B.} f.k.;.b.t._ { A ;.b { | s m h E Q ] {.Q / E ~ d ",
"SX0XMXSXVXSXSXnX5XbXmXvXfXvX9Xp.2XgXjXtXsXeXU.B.(.F.c.H.c.c.U.j.d.L P n [ ' i k s s 4 f M.2 9 5 5 5 ",
"qXwX7XbXbXhXqX7X;X1X9X1X;X;X;Xe.3XtXfXyX:X:Xk.l.H.v.v.c.8.k.B.s.Z I L v B } y i i 5 4 z 6.9 3 7 5 5 ",
"wXp.[.,X,Xa.p.p.a.p.wXp.a.p.;Xr.r.r.e.e.j.B.j.s.s.s.s.} { Z ` B g C Z i f b s a ~ ~ z ^ &.( q &.^ s ",
"MXMXMXSXnX9XqXbXqX9X7X9XwX,X9X>X2X$X3X.XP.3XQ.P.U.U.P.N.B.0.` { _ w.} c b h ^ h +.o.R e w !   6.o.o ",
"BXBXSXCXSX9XhXnXbX7X7X7X1X1XhXgXrXrX6X.X%XrXW.R.R.U.P.j.>.s.s.0.{ w.} ;.Z g V c 3.( r 3 3 e 2 5.[ O ",
"5X5X8X9X4Xp.>X<X>X>X>X|.a.y.I.B.B.B.N.0.j.S.j.s.d.d.} Z Z N Z g g C N N Z B n v ~ ^ x x x e < ~ ~ O ",
"4X X9X2X1X>X3X3Xy..X=X^.Q.@X+XB.S.R.R.Z.^.R.B.g.A.v.c.d.d.x.z.J =.K U K *.;.*.*.^ &.&.&.6.w s ^ ! k ",
"nX9XnXmXBXzXhXzX<XaXcXdXlXcXdX+X-XeXuXuXuX-XS.T.(.Y.c.c.c.Z.x.=.,.K =.G *.-.z b b z z x [ 8 b 8 s s ",
"zX4XbXmXnX8XhXzX}.aXlXdXdXlXaX&X&X%X-X-X-X-XC.V.U.A.B.b.b.n.4.^ >.*.=.G ` [ f h h s s d ] $ ; . o + ",
"oXi..X X X[..X.Xu.C.S.M.M.n.C.b.f.b.n.>.}  .} r.s.0.Z { ~ ` ^ f h b b c h W h j j h f ~ m.[ +.m.[ +.",
"xXhXhXhXiX<XpXjXkXdXdXsX+XT.3XW.=XyX#Xk.k.H.G.F.h.h.r.7.C C 0.B `  .} Z { { Z g b.+.z n %.^ b M.[ ^ ",
"mXcXcXmXmX2XkXcXxXdXkXcXrX#XtXpXeXtXrXI.G.E.F.F.G.G.J.q.{ C { C m b.` m m j m u +.] 2 w 5 q . ] f O ",
"iXaXhX6X6X.X2XaXaXaXiX6X$XC.%X#X&X&X|.+.r.J.e.e.J.r._ _ > ; j j - ) E Q > ; j - > , 0 % R 0 % ..T ; ",
" Xu..X&XXXV.Q.@Xe.y.L.P.V.t.N.>.n.B.M.>.w.g.f.w.w.C O.q._ | b.t.-.-.} { _ _ m h ) {.{.{.{.5.@.M.M.m.",
"hXP.aXcXgXpXsXtXT.#XyXeX-X=X+Xx.(.(.(.!.!.^.c.c.d.8.8.s.Z J :.=.1.F 1.K -.4.i v c c 5 ^ *.5 1 5 5 1 ",
"zXOXgXkXdXsXjXdXK.T.yXyXyXeX=XA./.^.^.!.!.v.:.g.v.z.8.L Z :.z.1.2.H Y K *.<.5 w k y @ b ' 4 1 1 1 6 ",
"oXu.$X|.|.V.P.|.] t.V.K.N.K.J.e.V.w.g.,.,.,. .t. .} ` m h `  .` ] b b z W T R R ; O...#.5.$.o.[ O.X.",
"XX%X6X%X$Xm.C.P.OXOX%XT.j.J.J.N.L.b.f.;.g.g.>.m.B.g.b.t.| }  .` ] t.' &.$.$.6.$.{.{.{.{.*X{.{.*X].].",
"-XpXsXpXpXS.-XuX-X-X-X/.A.U.Q.W.Q.c.F.g.v.v.U 9.U U L s.Z Z L Z g -.F F H t H 3 ( r < < < <   f o @ ",
"sXsXyXeX-Xd./.-X-X^./.Y.B.U.W.W.c.c.c.c.v.!.~.v.U P I L N p N N y J D 7 t H H 7 &.e t 7 7 e r ~ @ @ ",
"m.b.>.M.V.3.+Xb.+.y.j.e.r.a.w.f.s.;. .>.g.g.;.' }  . .w.' ' f.' ! -.<.<.[ ^ z R / / ! R ( ( ( '.X.O.",
"*XN.+X%XeX=XiXyXy.i.I.J.J.L.L.j.f.g.Z.A.x.:. .+. .f.b.b.>.b.C.-.=.*.2.^ o.@.R ! / R ! ( o./ R $.O.O.",
"3Xf.uXeXsXsXrXgXN.J.E.F.G.I.J.0.A.c.v.!.~.z.;.} V I J J n =.=.l S t H w ~ 5.z G e %.^ &.*.9 < 3 2 1 ",
"T.0.:X/./.#XT.W.e.e.G.G.l.G.e.0.,.:.K U U K ' n v v J *.n %.1.H F t t w ! ( w x 9 ~ 9 ^ ^ 9 9 3 w 9 ",
"N.e.L.V.y.y.B.f.w.e.K.j.e.J.N.B.n.B.C.A.x.>.f.M.>.;.3. .[  .>.<.&.6.^ ^ [ ( / W #.#.) #.u...u.].] ] ",
"L.P.L.i.u.q.$XB.T.P.@XN.t.V.M.S.n.g.+. .;.} ' '  .>.t./ f ~ ^ z W o.x x ^ f ~ T .., # , % # # > # & ",
"K.I.J.L.i.t.%XU.W.T.T.B.f.B.g.Z.x.:.'  .,.>.;.V V *. .b s ^ n z R W b z z s 8 $ > X X o X X = , # X ",
"j.0.j.N.y.0.T.Y.B.n.A.s.>.S.x.Z.1.:.f.n.x.,.<.<.=.*.>.-.' -.^ ^ / / ' ^ ' -.b ~ O.Q | W h ) Q O...) ",
"OXj.+XR.B.U.+XR.N.T.S.c.A.S.S.;.A.2.Z.Z.x.2.6.M.,.2.2.D.4.<.M.-.<.' 4.[ +.5./ o.@.5.3.{.3.~ ] 3. .[ ",
"|.f.R.Y.R.T.+XB.` b.B.x.B.B.B.B ' ^ J G =.&.T ] x x k n x ! ( q ^ z x s T T $ 9 8 T % / / . O O o . ",
"C. .S.T.T.S.S.>.E b.M.s.f.M. .h ' ' ^ ^ ,.[ T X.f x z ! W W X.% f q 9 0 * * o R & % & / $.& % & % & ",
"S.n.T.T.B.g.A.g.f.T.A.>.n.n.,.>.Z.n.6.>.4.6.( 5.[ ^ -.6.[ [ 5.X.o.o.6.~ / W f ( o.5./ '.{.( 5.5.o./ ",
"Y.H./.W.K.d.c.z.:.x.:.J ;.:.=.1.1.1.^ -.=.G %.G =.x %.*.n n ^ ^ W X.&.k x x w 9 6.( e q e q q ( ! 8 ",
"c.k.U.U.K.0.z.P I J v v n N l F D k z ~ x e e w %.e ! b s f s 9 % T 9 1 2 9 9 q ( 0 0 < < r . ( 8 o ",
"f.f.b.y.u.| >.} f.' >.}  .o.~ h ~ E E ] ( R / W [ E  .W > W E R > ..] d E $.W T ..Q W R $.W T `..., ",
"C.B.C.B.C.b.S.S.b. .4.,.f.M.>.` o.+.[ 6.n.[ @.@.~ ~ V.#.Q O. .[ / O.[ o.`.].u.@.@.@.#.'.{.`.`.*X{.u.",
"k.:.v.v.z.Y Y U V ;.K S S p p v n z n l S l f [ 4 5 5 s E ~ z q q 9 7 1 R E . 4   6 . s / .       . ",
"g.L z.9._.Y Y U K 2.1.Y Y F S F G H I F F H n o.n G p v n b x 3 e l t 7 ! / O i 7 5 1 b (   r 3 3 < "
};
